<svg width="64" height="64" viewBox="0 0 64 64" xmlns="http://www.w3.org/2000/svg">
  <defs>
    <filter id="shadow" x="-20%" y="-20%" width="140%" height="140%">
      <feDropShadow dx="0" dy="2" stdDeviation="3" flood-opacity="0.3"/>
    </filter>
  </defs>
  <!-- Main Pin -->
  <path filter="url(#shadow)" d="M32 4 C18.7 4 8 14.7 8 28 C8 43.3 32 64 32 64 C32 64 56 43.3 56 28 C56 14.7 45.3 4 32 4 Z" fill="#E6D355"/>
  <!-- Inner Circle -->
  <circle cx="32" cy="26" r="12" fill="#2E2A1C"/>
  <!-- Coffee Cup -->
  <path d="M26 22 H36 V28 C36 30.2 34.2 32 32 32 H30 C27.8 32 26 30.2 26 28 V22 Z M36 24 H38 C39.1 24 40 24.9 40 26 C40 27.1 39.1 28 38 28 H36" stroke="#E6D355" stroke-width="2" stroke-linecap="round" stroke-linejoin="round" fill="none"/>
</svg>
